<svg xmlns="http://www.w3.org/2000/svg" width="1200" height="630" viewBox="0 0 1200 630" role="img" aria-label="AIntogeny preview image">
  <defs>
    <linearGradient id="bg" x1="0" x2="1" y1="0" y2="1">
      <stop stop-color="#070b16"/>
      <stop offset="0.5" stop-color="#0b1020"/>
      <stop offset="1" stop-color="#17102f"/>
    </linearGradient>
    <linearGradient id="mark" x1="0" x2="1" y1="0" y2="1">
      <stop stop-color="#77f7d8"/>
      <stop offset="0.55" stop-color="#36d7ff"/>
      <stop offset="1" stop-color="#9f7cff"/>
    </linearGradient>
    <filter id="glow" x="-50%" y="-50%" width="200%" height="200%">
      <feGaussianBlur stdDeviation="24" result="blur"/>
      <feMerge>
        <feMergeNode in="blur"/>
        <feMergeNode in="SourceGraphic"/>
      </feMerge>
    </filter>
  </defs>
  <rect width="1200" height="630" fill="url(#bg)"/>
  <circle cx="940" cy="110" r="210" fill="#9f7cff" opacity="0.23" filter="url(#glow)"/>
  <circle cx="145" cy="520" r="240" fill="#36d7ff" opacity="0.18" filter="url(#glow)"/>
  <rect x="74" y="70" width="1052" height="490" rx="42" fill="rgba(255,255,255,0.06)" stroke="rgba(255,255,255,0.18)"/>
  <rect x="118" y="118" width="86" height="86" rx="24" fill="rgba(119,247,216,0.12)" stroke="rgba(119,247,216,0.45)"/>
  <text x="142" y="172" fill="#77f7d8" font-family="Inter, Arial, sans-serif" font-size="28" font-weight="800">AI</text>
  <text x="230" y="172" fill="#f6f8ff" font-family="Inter, Arial, sans-serif" font-size="38" font-weight="800">AIntogeny</text>
  <text x="118" y="305" fill="#f6f8ff" font-family="Inter, Arial, sans-serif" font-size="72" font-weight="850" letter-spacing="-3">AI-native systems</text>
  <text x="118" y="384" fill="#f6f8ff" font-family="Inter, Arial, sans-serif" font-size="72" font-weight="850" letter-spacing="-3">that keep learning.</text>
  <text x="120" y="455" fill="#aeb8d8" font-family="Inter, Arial, sans-serif" font-size="28">Strategy, prototypes, automations, and production-ready AI capability.</text>
  <path d="M887 198c65 0 118 53 118 118s-53 118-118 118-118-53-118-118 53-118 118-118Z" fill="none" stroke="url(#mark)" stroke-width="3" opacity="0.8"/>
  <path d="M887 244c40 0 72 32 72 72s-32 72-72 72-72-32-72-72 32-72 72-72Z" fill="none" stroke="#77f7d8" stroke-width="3" opacity="0.85"/>
  <circle cx="887" cy="316" r="20" fill="url(#mark)"/>
</svg>
